<?xml version="1.0" encoding="utf-8"?>
<!-- Generator: Adobe Illustrator 25.2.3, SVG Export Plug-In . SVG Version: 6.00 Build 0)  -->
<svg version="1.1" id="Layer_1" xmlns="http://www.w3.org/2000/svg" xmlns:xlink="http://www.w3.org/1999/xlink" x="0px" y="0px"
	 viewBox="0 0 163.5 44.5" style="enable-background:new 0 0 401.2 44.5;" xml:space="preserve">
<style type="text/css">
	.st0{fill:#ffffff;}
	.st1{fill:#8C99CD;}
	.st2{fill:url(#SVGID_1_);}
	.st3{fill:url(#SVGID_2_);}
	.st4{fill:url(#SVGID_3_);}
	.st5{fill:url(#SVGID_4_);}
	.st6{fill:url(#SVGID_5_);}
	.st7{fill:url(#SVGID_6_);}
</style>
<g id="Layer_2_1_">
	<g id="Layer_1-2">
		<path class="st0" d="M90.1,33.8L90.1,33.8c-1.2,0-2.2-1-2.2-2.2c0,0,0,0,0,0V9.3c0-1.2,1-2.2,2.2-2.3c0,0,0,0,0,0l0,0
			c1.2,0,2.2,1,2.2,2.2c0,0,0,0,0,0v22.4C92.4,32.8,91.4,33.8,90.1,33.8C90.1,33.8,90.1,33.8,90.1,33.8z"/>
		<path class="st0" d="M137.1,33.8L137.1,33.8c-1.2,0-2.2-1-2.2-2.2c0,0,0,0,0,0V9.3c0-1.2,1-2.2,2.2-2.3c0,0,0,0,0,0l0,0
			c1.2,0,2.2,1,2.2,2.2v22.4C139.3,32.8,138.3,33.8,137.1,33.8z"/>
		<path class="st0" d="M74.5,11.5c-1.6,0-3.3,0.5-4.6,1.4c-0.5-1.1-1.8-1.7-2.9-1.2c-0.9,0.3-1.4,1.2-1.4,2.1v22.3
			c-0.1,1.2,0.9,2.3,2.1,2.4s2.3-0.9,2.4-2.1c0-0.1,0-0.2,0-0.3v-3.5c1.3,0.8,2.9,1.3,4.5,1.3c4.9,0,8.9-4.3,8.9-9.6v-3.2
			C83.4,15.8,79.4,11.5,74.5,11.5z M79,24.5c0.2,2.5-1.6,4.6-4.1,4.8c-2.5,0.2-4.6-1.6-4.8-4.1c0-0.2,0-0.5,0-0.7v-3.6
			c-0.2-2.5,1.6-4.6,4.1-4.8c2.5-0.2,4.6,1.6,4.8,4.1c0,0.2,0,0.5,0,0.7V24.5z"/>
		<path class="st0" d="M105.8,11.5L105.8,11.5c-4.9,0-8.9,4.3-8.9,9.6v3.2c0,5.3,4,9.6,8.9,9.6l0,0c4.9,0,8.9-4.3,8.9-9.6v-3.2
			C114.7,15.8,110.7,11.5,105.8,11.5z M110.2,24.5c0.2,2.5-1.6,4.6-4.1,4.8c-2.5,0.2-4.6-1.6-4.8-4.1c0-0.2,0-0.5,0-0.7v-3.6
			c-0.2-2.5,1.6-4.6,4.1-4.8c2.5-0.2,4.6,1.6,4.8,4.1c0,0.2,0,0.5,0,0.7V24.5z"/>
		<path class="st0" d="M128.1,29.4c-2.5,0-4.5-2-4.5-4.5V16h4.5c1.2,0.1,2.3-0.9,2.4-2.1c0.1-1.2-0.9-2.3-2.1-2.4
			c-0.1,0-0.2,0-0.3,0h-4.5V9.3c-0.1-1.2-1.2-2.2-2.4-2.1c-1.1,0.1-2,1-2.1,2.1v15.6c0,4.9,4,8.9,8.9,8.9c1.2,0.1,2.3-0.9,2.4-2.1
			c0.1-1.2-0.9-2.3-2.1-2.4C128.3,29.4,128.2,29.4,128.1,29.4z"/>
		<path class="st0" d="M159.5,11.7c-1.1-0.5-2.4,0-2.9,1.2c0,0,0,0,0,0l-4.6,10.8l-4.6-10.8c-0.6-1.1-1.9-1.5-3-1
			c-1,0.5-1.5,1.7-1.1,2.7l6.3,14.7l-0.8,1.8c-0.7,1.6-2.2,2.7-4,2.7c-1.2,0.1-2.2,1.2-2.1,2.4c0.1,1.1,1,2,2.1,2.1l0,0
			c3.5-0.1,6.6-2.2,8-5.5l7.8-18.2C161.1,13.5,160.6,12.2,159.5,11.7z"/>
		<circle class="st1" cx="28.6" cy="15.9" r="3.2"/>
		<circle class="st1" cx="41.3" cy="3.2" r="3.2"/>
		<circle class="st1" cx="28.6" cy="3.2" r="3.2"/>
		<circle class="st1" cx="15.9" cy="3.2" r="3.2"/>
		<circle class="st1" cx="3.2" cy="3.2" r="3.2"/>
		<circle class="st1" cx="3.2" cy="15.9" r="3.2"/>
		
			<linearGradient id="SVGID_1_" gradientUnits="userSpaceOnUse" x1="38" y1="-148.9" x2="82.52" y2="-148.9" gradientTransform="matrix(1 0 0 -1 -38 -133)">
			<stop  offset="0" style="stop-color:#3479F3"/>
			<stop  offset="1" style="stop-color:#7FE4FF"/>
		</linearGradient>
		<circle class="st2" cx="28.6" cy="15.9" r="3.2"/>
		
			<linearGradient id="SVGID_2_" gradientUnits="userSpaceOnUse" x1="38" y1="-136.18" x2="82.52" y2="-136.18" gradientTransform="matrix(1 0 0 -1 -38 -133)">
			<stop  offset="0" style="stop-color:#3479F3"/>
			<stop  offset="1" style="stop-color:#7FE4FF"/>
		</linearGradient>
		<circle class="st3" cx="41.3" cy="3.2" r="3.2"/>
		
			<linearGradient id="SVGID_3_" gradientUnits="userSpaceOnUse" x1="38" y1="-136.18" x2="82.52" y2="-136.18" gradientTransform="matrix(1 0 0 -1 -38 -133)">
			<stop  offset="0" style="stop-color:#3479F3"/>
			<stop  offset="1" style="stop-color:#7FE4FF"/>
		</linearGradient>
		<circle class="st4" cx="28.6" cy="3.2" r="3.2"/>
		
			<linearGradient id="SVGID_4_" gradientUnits="userSpaceOnUse" x1="38" y1="-136.18" x2="82.52" y2="-136.18" gradientTransform="matrix(1 0 0 -1 -38 -133)">
			<stop  offset="0" style="stop-color:#3479F3"/>
			<stop  offset="1" style="stop-color:#7FE4FF"/>
		</linearGradient>
		<circle class="st5" cx="15.9" cy="3.2" r="3.2"/>
		
			<linearGradient id="SVGID_5_" gradientUnits="userSpaceOnUse" x1="38" y1="-136.18" x2="82.52" y2="-136.18" gradientTransform="matrix(1 0 0 -1 -38 -133)">
			<stop  offset="0" style="stop-color:#3479F3"/>
			<stop  offset="1" style="stop-color:#7FE4FF"/>
		</linearGradient>
		<circle class="st6" cx="3.2" cy="3.2" r="3.2"/>
		
			<linearGradient id="SVGID_6_" gradientUnits="userSpaceOnUse" x1="38" y1="-148.9" x2="82.52" y2="-148.9" gradientTransform="matrix(1 0 0 -1 -38 -133)">
			<stop  offset="0" style="stop-color:#3479F3"/>
			<stop  offset="1" style="stop-color:#7FE4FF"/>
		</linearGradient>
		<circle class="st7" cx="3.2" cy="15.9" r="3.2"/>
		<path class="st0" d="M3.2,25.4c-1.8,0-3.2,1.4-3.2,3.2c0,0,0,0,0,0v12.7c0,1.8,1.4,3.2,3.2,3.2s3.2-1.4,3.2-3.2V28.6
			C6.4,26.9,4.9,25.4,3.2,25.4L3.2,25.4z"/>
		<path class="st0" d="M28.6,25.4c-1.8,0-3.2,1.4-3.2,3.2l0,0v12.7c0,1.8,1.4,3.2,3.2,3.2s3.2-1.4,3.2-3.2V28.6
			C31.8,26.9,30.4,25.4,28.6,25.4L28.6,25.4z"/>
		<path class="st0" d="M15.9,12.7c-1.8,0-3.2,1.4-3.2,3.2l0,0v25.4c0,1.8,1.4,3.2,3.2,3.2s3.2-1.4,3.2-3.2V15.9
			C19.1,14.1,17.7,12.7,15.9,12.7z"/>
		<path class="st0" d="M41.3,12.7c-1.8,0-3.2,1.4-3.2,3.2l0,0v25.4c0,1.8,1.4,3.2,3.2,3.2s3.2-1.4,3.2-3.2V15.9
			C44.5,14.1,43.1,12.7,41.3,12.7z"/>
	</g>
</g>
</svg>
